<?xml version="1.0" encoding="utf-8"?>
<!-- Generator: Adobe Illustrator 22.1.0, SVG Export Plug-In . SVG Version: 6.00 Build 0)  -->
<svg version="1.1" id="Capa_1" xmlns="http://www.w3.org/2000/svg" xmlns:xlink="http://www.w3.org/1999/xlink" x="0px" y="0px"
	 viewBox="0 0 512 512" style="enable-background:new 0 0 512 512;" xml:space="preserve">
<style type="text/css">
	.st0{fill:#FFFFFF;stroke:#000000;stroke-miterlimit:10;}
	.st1{fill:#8C6940;}
</style>
<ellipse class="st0" cx="255.8" cy="275.2" rx="196.8" ry="145.2"/>
<g>
	<path class="st1" d="M477.7,127.5c-22.9-39.2-53.9-70.3-93.2-93.2C345.3,11.4,302.5,0,256,0c-46.4,0-89.3,11.4-128.5,34.3
		c-39.2,22.9-70.3,53.9-93.2,93.2C11.4,166.7,0,209.6,0,256c0,46.4,11.4,89.3,34.3,128.5c22.9,39.2,53.9,70.3,93.2,93.2
		C166.7,500.6,209.6,512,256,512s89.3-11.4,128.5-34.3c39.2-22.9,70.3-53.9,93.2-93.2C500.6,345.3,512,302.4,512,256
		C512,209.6,500.6,166.7,477.7,127.5z M422.3,239L271,390.3c-4.2,4.2-9.2,6.3-15,6.3c-5.8,0-10.8-2.1-15-6.3L89.7,239
		c-4.2-4.2-6.3-9.2-6.3-15c0-5.8,2.1-10.8,6.3-15l34-34c4.2-4.2,9.2-6.3,15-6.3c5.8,0,10.8,2.1,15,6.3L256,277.3L358.3,175
		c4.2-4.2,9.2-6.3,15-6.3s10.8,2.1,15,6.3l34,34c4.2,4.2,6.3,9.2,6.3,15C428.7,229.8,426.6,234.8,422.3,239z"/>
</g>
</svg>
