<svg xmlns="http://www.w3.org/2000/svg" viewBox="0 0 369.92 130.72"><defs><style>.cls-1{fill:#fac176;}.cls-2{fill:#2c91d0;}.cls-3{fill:#e2ac69;}.cls-4{fill:#e4af18;}.cls-5{fill:#fcc62d;}.cls-6{fill:#556180;}.cls-7{fill:#8c6940;}.cls-8{fill:#bfb0a1;}.cls-9{fill:#806142;}.cls-10{fill:#a08871;}.cls-11{fill:#301d0a;}</style></defs><title>buy icon</title><g id="Слой_1" data-name="Слой 1"><g id="_Группа_" data-name="&lt;Группа&gt;"><path id="_Контур_" data-name="&lt;Контур&gt;" class="cls-1" d="M123.57,157.25c-2.39-3.33-4.37-4.12-12.67.24L94.36,167.6c-1.89,1-4.92,1.52-8.28,1.78a.79.79,0,0,1,0,.13,1.9,1.9,0,0,1-1.91,1.9H51.79c-5.72,0-5.72,2.88-5.72,3.82a1.91,1.91,0,0,1-3.81,0c0-4.78,3.56-7.63,9.53-7.63H78.93c1-1.06,1.19-2.7-.5-5.22a14.53,14.53,0,0,0-12.11-6.27H58.88a20,20,0,0,1-12.07-3.9c-8.08-6.09-23.62-5.58-23.62-5.58v45.76H49.88a76,76,0,0,0,11.38-.86l24.85-3.78a11.2,11.2,0,0,0,2.47-.28h0a9.79,9.79,0,0,0,5.32-2.71l29-22.56a3.67,3.67,0,0,0,.66-4.95" transform="translate(-13.66 -91.34)"/><path id="_Контур_2" data-name="&lt;Контур&gt;" class="cls-2" d="M72.24,169.53l-1.92,0s.79.05,1.92,0" transform="translate(-13.66 -91.34)"/><path id="_Контур_3" data-name="&lt;Контур&gt;" class="cls-3" d="M42.26,175.23a1.91,1.91,0,1,0,3.81,0c0-.94,0-3.81,5.72-3.81H84.2a1.91,1.91,0,0,0,1.91-1.91s0-.08,0-.13c-4.75.37-10.13.21-13.85.15-1.13,0-1.92,0-1.92,0l1.92,0c2.06-.06,5.24-.41,6.69-1.93H51.79c-6,0-9.53,2.85-9.53,7.63" transform="translate(-13.66 -91.34)"/><path id="_Контур_4" data-name="&lt;Контур&gt;" class="cls-4" d="M107.08,106.59A15.25,15.25,0,1,1,91.83,91.34a15.25,15.25,0,0,1,15.25,15.25" transform="translate(-13.66 -91.34)"/><path id="_Контур_5" data-name="&lt;Контур&gt;" class="cls-4" d="M55.23,155.79a22.21,22.21,0,0,0,3.65.32h7.44a15.2,15.2,0,0,1,3.56.42,15.25,15.25,0,1,0-14.65-.74" transform="translate(-13.66 -91.34)"/><path id="_Контур_6" data-name="&lt;Контур&gt;" class="cls-5" d="M70.86,142.82a7.63,7.63,0,1,1-7.63-7.63,7.63,7.63,0,0,1,7.63,7.63" transform="translate(-13.66 -91.34)"/><path id="_Контур_7" data-name="&lt;Контур&gt;" class="cls-5" d="M99.46,106.59A7.63,7.63,0,1,1,91.83,99a7.64,7.64,0,0,1,7.63,7.63" transform="translate(-13.66 -91.34)"/><rect id="_Контур_8" data-name="&lt;Контур&gt;" class="cls-6" y="49.52" width="9.53" height="57.25"/></g></g><g id="Слой_2" data-name="Слой 2"><path class="cls-5" d="M259.53,114.35l-24-18.64a6.11,6.11,0,0,0-8.13.65,5,5,0,0,0,.71,7.49L240,113.17H183c-18.08,0-32.74,13.52-32.76,30.17v9.54a5.79,5.79,0,0,0,11.54,0v-9.63c0-10.79,9.51-19.53,21.22-19.55H240L228.12,133a5,5,0,0,0-.7,7.49,6.12,6.12,0,0,0,8.13.65l24-18.65a5,5,0,0,0,.71-7.48,6.31,6.31,0,0,0-.71-.66Z" transform="translate(-13.66 -91.34)"/><path class="cls-7" d="M244.32,158.23a5.55,5.55,0,0,0-5.77,5.31v9.64c0,10.78-9.51,19.52-21.22,19.54H160.25l11.9-9.32a5.09,5.09,0,0,0,2.26-7.22,6,6,0,0,0-7.84-2.09,5.75,5.75,0,0,0-1.67,1.29l-24,18.65a5,5,0,0,0-.71,7.48,5,5,0,0,0,.71.66l24,18.64a6.11,6.11,0,0,0,8.13-.65,5,5,0,0,0-.71-7.49l-11.91-9.32h56.92c18.08,0,32.74-13.52,32.76-30.18v-9.63A5.56,5.56,0,0,0,244.32,158.23Z" transform="translate(-13.66 -91.34)"/></g><g id="Слой_3" data-name="Слой 3"><path class="cls-7" d="M373.25,102.51h8.26V94.25H278.27v8.26Z" transform="translate(-13.66 -91.34)"/><path class="cls-7" d="M294.79,205.75h86.72v-8.26H278.27v8.26Z" transform="translate(-13.66 -91.34)"/><path class="cls-7" d="M286.53,205.75h8.26V214h-8.26Z" transform="translate(-13.66 -91.34)"/><path class="cls-7" d="M365,205.75h8.26V214H365Z" transform="translate(-13.66 -91.34)"/><path class="cls-8" d="M286.53,102.51H332v95H286.53Z" transform="translate(-13.66 -91.34)"/><path class="cls-9" d="M332,176.84h41.3v20.65H332Z" transform="translate(-13.66 -91.34)"/><path class="cls-10" d="M332,156.19h41.3v20.65H332Z" transform="translate(-13.66 -91.34)"/><path class="cls-11" d="M332,102.51h41.3v53.68H332Z" transform="translate(-13.66 -91.34)"/><path d="M375.32,104.57h6.19a2.06,2.06,0,0,0,2.06-2.06V94.25a2.07,2.07,0,0,0-2.06-2.07H278.27a2.07,2.07,0,0,0-2.07,2.07v8.26a2.07,2.07,0,0,0,2.07,2.06h6.19v90.86h-6.19a2.07,2.07,0,0,0-2.07,2.06v8.26a2.07,2.07,0,0,0,2.07,2.07h6.19V214a2.07,2.07,0,0,0,2.07,2.06h8.26a2.06,2.06,0,0,0,2.06-2.06v-6.19h66.08V214a2.06,2.06,0,0,0,2.06,2.06h8.26a2.07,2.07,0,0,0,2.07-2.06v-6.19h6.19a2.07,2.07,0,0,0,2.06-2.07v-8.26a2.06,2.06,0,0,0-2.06-2.06h-6.19ZM334,158.26h37.17v16.52H334Zm37.17-4.13H334V104.57h37.17ZM280.33,96.31h99.12v4.13H280.33Zm8.26,8.26h41.3v90.86h-41.3Zm4.13,107.37h-4.13v-4.12h4.13Zm78.47,0h-4.13v-4.12h4.13Zm8.26-8.25H280.33v-4.13h99.12ZM334,195.43V178.91h37.17v16.52Z" transform="translate(-13.66 -91.34)"/><path d="M356.73,160.32h-8.26a2.07,2.07,0,0,0,0,4.13h8.26a2.07,2.07,0,1,0,0-4.13Z" transform="translate(-13.66 -91.34)"/><path d="M356.73,181h-8.26a2.07,2.07,0,0,0,0,4.13h8.26a2.07,2.07,0,1,0,0-4.13Z" transform="translate(-13.66 -91.34)"/><path d="M325.76,147.94a2.07,2.07,0,0,0-2.07,2.06v8.26a2.07,2.07,0,0,0,4.13,0V150A2.06,2.06,0,0,0,325.76,147.94Z" transform="translate(-13.66 -91.34)"/></g></svg>