<svg id="Capa_1" data-name="Capa 1" xmlns="http://www.w3.org/2000/svg" viewBox="0 0 511.9 499.51"><defs><style>.cls-1{fill:#8c6940;}</style></defs><title>call</title><path class="cls-1" d="M353.8,268.4c-1,1.5-1,3-1.5,5a11.94,11.94,0,0,0,23.8,2,24.53,24.53,0,0,1,.5-5.5v-5.5a130.93,130.93,0,0,0-7-41.8c-6-17.4-16.4-32.8-28.9-45.8A125.18,125.18,0,0,0,285,144.5a131.63,131.63,0,0,0-31.3-4,82.5,82.5,0,0,0-10.9.5l-10.4,1.5c-6.5,1-10.9,7.5-9.5,13.4,1,6.5,7.5,10.9,13.4,9.5a49.26,49.26,0,0,1,8.5-1h1.5c2.5,0,5-.5,7.5-.5a98.31,98.31,0,0,1,70.7,29.4A100.37,100.37,0,0,1,353.9,263v1C353.8,266,353.8,267.5,353.8,268.4Z" transform="translate(0 -6.3)"/><path class="cls-1" d="M419.5,279.4a11.94,11.94,0,0,0,23.8,2c.5-5.5.5-10.9.5-16.4a221.28,221.28,0,0,0-2.5-31.8c-6.5-39.8-25.9-75.6-53.2-103A188.43,188.43,0,0,0,268.7,74.9c-5-.5-10.4-.5-15.4-.5-5.5,0-10.9,0-16.4.5s-10.9,1-16.4,2c-6.5,1-10.9,7.5-9.5,13.4,1,6.5,7.5,10.9,13.4,9.5,3.5-.5,6.5-1,10-1.5,1.5,0,3-.5,4.5-.5,5-.5,10-.5,14.4-.5a171.44,171.44,0,0,1,48.3,7,165.77,165.77,0,0,1,70.2,41.8,169.94,169.94,0,0,1,37.3,56.2A167.36,167.36,0,0,1,421,264v5A35.81,35.81,0,0,0,419.5,279.4Z" transform="translate(0 -6.3)"/><path class="cls-1" d="M436.4,82.4A258.31,258.31,0,0,0,252.8,6.3c-7.5,0-14.9.5-22.4,1a172,172,0,0,0-22.4,3c-6.5,1-10.9,7.5-9.5,13.4,1,6.5,7.5,10.9,13.4,9.5,3.5-.5,6.5-1,10-1.5a74.63,74.63,0,0,1,10.4-1c7-.5,13.4-1,20.4-1,64.7,0,123.4,26.4,166.2,68.7a234.23,234.23,0,0,1,68.7,166.2v10.9c0,3-.5,6-.5,9.5a11.94,11.94,0,0,0,23.8,2c.5-7.5,1-14.9,1-21.9A257.22,257.22,0,0,0,436.4,82.4Z" transform="translate(0 -6.3)"/><path class="cls-1" d="M493.6,383.9l-88.1-47.3c-29.4-15.9-30.4-5.5-61.2,27.4-7.5,8-21.4,28.9-37.8,24.9-34.3-8.5-98.5-58.7-119.4-81.6-10-10.9-52.7-63.2-53.2-80.1-1-25.9,55.7-38.8,37.3-88.1L131.9,51C95-33.6-8,101.8.5,165,22.4,320.7,295.6,572.5,447.8,489.4,481.6,470.5,527.4,404.3,493.6,383.9Z" transform="translate(0 -6.3)"/></svg>