<svg xmlns="http://www.w3.org/2000/svg" viewBox="0 0 238.38 92.24"><defs><style>.cls-1{fill:#8c6940;}.cls-2{fill:#fcc62d;}.cls-3{font-size:32.33px;fill:#fff;font-family:MyriadPro-Regular, Myriad Pro;}.cls-4{fill:#e4af18;}.cls-5{fill:#f4bf1a;}.cls-6{fill:#ffd949;}.cls-7{fill:#dca815;}.cls-8{fill:#c49214;}</style></defs><title>credit</title><g id="Слой_1" data-name="Слой 1"><path class="cls-1" d="M274.85,151.34l-41.53-17.63c-8.59,23,1,49.94,23.69,58.42,22.54,8.4,48.85-1.38,58.54-23.65,9.82-22.61-1-48.9-23.65-58.54a44.5,44.5,0,0,0-33.93-.38Z" transform="translate(-80.81 -102.88)"/><path class="cls-2" d="M248.28,102.9a49.71,49.71,0,0,0-23.63,22.55.21.21,0,0,0,.11.3l39.84,16.91-16-39.64A.23.23,0,0,0,248.28,102.9Z" transform="translate(-80.81 -102.88)"/><text class="cls-3" transform="translate(196.01 70.92)">%</text></g><g id="Слой_2" data-name="Слой 2"><g id="_Группа_" data-name="&lt;Группа&gt;"><path id="_Контур_" data-name="&lt;Контур&gt;" class="cls-4" d="M123.75,180c-21.26,0-38.5-4.39-38.5-8.89v10.36c0,4.5,17.25,8.89,38.5,8.89s38.49-4.39,38.5-8.89V171.06c0,4.5-17.23,8.89-38.5,8.89" transform="translate(-80.81 -102.88)"/><path id="_Контур_2" data-name="&lt;Контур&gt;" class="cls-5" d="M119.31,163.66c-21.26,0-38.5-4.39-38.5-8.89v10.36c0,4.5,17.24,8.89,38.5,8.89s38.49-4.39,38.5-8.89V154.77c0,4.5-17.24,8.89-38.5,8.89" transform="translate(-80.81 -102.88)"/><path id="_Контур_3" data-name="&lt;Контур&gt;" class="cls-4" d="M128.2,147.37c-21.27,0-38.5-4.39-38.5-8.88v10.35c0,4.5,17.24,8.9,38.5,8.9s38.48-4.4,38.5-8.9V138.49c0,4.49-17.24,8.88-38.5,8.88" transform="translate(-80.81 -102.88)"/><path id="_Контур_4" data-name="&lt;Контур&gt;" class="cls-6" d="M157.81,120.91c0,4.5-17.24,8.69-38.5,8.69s-38.5-4.19-38.5-8.69,17.24-7.6,38.5-7.6,38.5,3.1,38.5,7.6" transform="translate(-80.81 -102.88)"/><path id="_Контур_5" data-name="&lt;Контур&gt;" class="cls-5" d="M119.31,129.6c-21.26,0-38.5-4.39-38.5-8.88v10.36c0,4.49,17.24,8.89,38.5,8.89s38.49-4.4,38.5-8.89V120.72c0,4.49-17.24,8.88-38.5,8.88" transform="translate(-80.81 -102.88)"/><path id="_Контур_6" data-name="&lt;Контур&gt;" class="cls-7" d="M86.73,125.27v10.36c.9.33,1.89.65,3,1V126.22c-1.08-.3-2.07-.62-3-1" transform="translate(-80.81 -102.88)"/><path id="_Контур_7" data-name="&lt;Контур&gt;" class="cls-7" d="M148.93,126.22v10.36c1.07-.3,2.06-.62,3-1V125.27c-.9.33-1.89.65-3,1" transform="translate(-80.81 -102.88)"/><path id="_Контур_8" data-name="&lt;Контур&gt;" class="cls-7" d="M94.14,127.3v10.36c1,.2,1.93.38,3,.56V127.86c-1-.18-2-.36-3-.56" transform="translate(-80.81 -102.88)"/><path id="_Контур_9" data-name="&lt;Контур&gt;" class="cls-7" d="M141.52,127.86v10.36c1-.18,2-.36,3-.56V127.3c-.94.2-1.93.38-3,.56" transform="translate(-80.81 -102.88)"/><path id="_Контур_10" data-name="&lt;Контур&gt;" class="cls-7" d="M101.54,128.52v10.36c1,.13,1.95.24,3,.34V128.86c-1-.1-2-.22-3-.34" transform="translate(-80.81 -102.88)"/><path id="_Контур_11" data-name="&lt;Контур&gt;" class="cls-7" d="M134.12,128.86v10.37c1-.11,2-.22,3-.35V128.52c-1,.12-2,.24-3,.34" transform="translate(-80.81 -102.88)"/><path id="_Контур_12" data-name="&lt;Контур&gt;" class="cls-7" d="M109,129.24v10.37c1,.07,2,.13,3,.18V129.42c-1,0-2-.11-3-.18" transform="translate(-80.81 -102.88)"/><path id="_Контур_13" data-name="&lt;Контур&gt;" class="cls-7" d="M126.72,129.42v10.37c1,0,2-.11,3-.18V129.24c-1,.07-2,.13-3,.18" transform="translate(-80.81 -102.88)"/><path id="_Контур_14" data-name="&lt;Контур&gt;" class="cls-7" d="M119.31,129.6h-1.48V140h3V129.59h-1.48" transform="translate(-80.81 -102.88)"/><path id="_Контур_15" data-name="&lt;Контур&gt;" class="cls-8" d="M95.62,143V153.4c.9.33,1.89.65,3,.95V144c-1.07-.3-2.06-.62-3-1" transform="translate(-80.81 -102.88)"/><path id="_Контур_16" data-name="&lt;Контур&gt;" class="cls-8" d="M157.81,144v10.36c1.08-.3,2.06-.62,3-.95V143c-.9.33-1.88.65-3,1" transform="translate(-80.81 -102.88)"/><path id="_Контур_17" data-name="&lt;Контур&gt;" class="cls-8" d="M103,145.07v10.36c1,.2,1.94.38,3,.56V145.63c-1-.18-2-.37-3-.56" transform="translate(-80.81 -102.88)"/><path id="_Контур_18" data-name="&lt;Контур&gt;" class="cls-8" d="M150.41,145.63V156c1-.18,2-.36,3-.56V145.07c-1,.19-1.94.38-3,.56" transform="translate(-80.81 -102.88)"/><path id="_Контур_19" data-name="&lt;Контур&gt;" class="cls-8" d="M110.43,146.29v10.36c1,.13,1.95.24,3,.34V146.63c-1-.1-2-.22-3-.34" transform="translate(-80.81 -102.88)"/><path id="_Контур_20" data-name="&lt;Контур&gt;" class="cls-8" d="M143,146.63V157c1-.1,2-.22,3-.34V146.29c-1,.12-2,.24-3,.34" transform="translate(-80.81 -102.88)"/><path id="_Контур_21" data-name="&lt;Контур&gt;" class="cls-8" d="M117.83,147v10.37c1,.07,2,.13,3,.17V147.19c-1-.05-2-.11-3-.18" transform="translate(-80.81 -102.88)"/><path id="_Контур_22" data-name="&lt;Контур&gt;" class="cls-8" d="M135.6,147.19v10.36c1,0,2-.1,3-.17V147c-1,.07-2,.13-3,.18" transform="translate(-80.81 -102.88)"/><path id="_Контур_23" data-name="&lt;Контур&gt;" class="cls-8" d="M128.2,147.37h-1.48v10.37h3V147.36H128.2" transform="translate(-80.81 -102.88)"/><path id="_Контур_24" data-name="&lt;Контур&gt;" class="cls-7" d="M86.73,159.33v10.35c.9.34,1.89.65,3,1V160.28c-1.08-.3-2.07-.62-3-.95" transform="translate(-80.81 -102.88)"/><path id="_Контур_25" data-name="&lt;Контур&gt;" class="cls-7" d="M148.93,160.28v10.36c1.07-.3,2.06-.62,3-1V159.33c-.9.33-1.89.65-3,.95" transform="translate(-80.81 -102.88)"/><path id="_Контур_26" data-name="&lt;Контур&gt;" class="cls-7" d="M94.14,161.36v10.36c1,.19,1.93.38,3,.56V161.92c-1-.18-2-.37-3-.56" transform="translate(-80.81 -102.88)"/><path id="_Контур_27" data-name="&lt;Контур&gt;" class="cls-7" d="M141.52,161.92v10.36c1-.18,2-.37,3-.56V161.36c-.94.19-1.93.38-3,.56" transform="translate(-80.81 -102.88)"/><path id="_Контур_28" data-name="&lt;Контур&gt;" class="cls-7" d="M101.54,162.58v10.36c1,.12,1.95.24,3,.34V162.92c-1-.1-2-.22-3-.34" transform="translate(-80.81 -102.88)"/><path id="_Контур_29" data-name="&lt;Контур&gt;" class="cls-7" d="M134.12,162.92v10.36c1-.1,2-.22,3-.34V162.58c-1,.12-2,.24-3,.34" transform="translate(-80.81 -102.88)"/><path id="_Контур_30" data-name="&lt;Контур&gt;" class="cls-7" d="M109,163.3v10.37l3,.17V163.48c-1,0-2-.11-3-.18" transform="translate(-80.81 -102.88)"/><path id="_Контур_31" data-name="&lt;Контур&gt;" class="cls-7" d="M126.72,163.48v10.36l3-.17V163.3c-1,.07-2,.13-3,.18" transform="translate(-80.81 -102.88)"/><path id="_Контур_32" data-name="&lt;Контур&gt;" class="cls-7" d="M119.31,163.66h-1.48V174h3V163.65h-1.48" transform="translate(-80.81 -102.88)"/><path id="_Контур_33" data-name="&lt;Контур&gt;" class="cls-8" d="M91.18,175.61V186c.9.33,1.88.65,3,1V176.57c-1.08-.31-2.06-.63-3-1" transform="translate(-80.81 -102.88)"/><path id="_Контур_34" data-name="&lt;Контур&gt;" class="cls-8" d="M153.37,176.57v10.36c1.07-.31,2.06-.63,3-1V175.61c-.9.34-1.89.65-3,1" transform="translate(-80.81 -102.88)"/><path id="_Контур_35" data-name="&lt;Контур&gt;" class="cls-8" d="M98.58,177.64V188c1,.19,1.94.38,3,.55V178.2c-1-.17-2-.36-3-.56" transform="translate(-80.81 -102.88)"/><path id="_Контур_36" data-name="&lt;Контур&gt;" class="cls-8" d="M146,178.2v10.37c1-.18,2-.37,3-.56V177.64c-1,.2-1.94.39-3,.56" transform="translate(-80.81 -102.88)"/><path id="_Контур_37" data-name="&lt;Контур&gt;" class="cls-8" d="M106,178.87v10.36c1,.12,2,.24,3,.34V179.21l-3-.34" transform="translate(-80.81 -102.88)"/><path id="_Контур_38" data-name="&lt;Контур&gt;" class="cls-8" d="M138.56,179.21v10.36c1-.1,2-.22,3-.34V178.87c-1,.12-2,.24-3,.34" transform="translate(-80.81 -102.88)"/><path id="_Контур_39" data-name="&lt;Контур&gt;" class="cls-8" d="M113.39,179.59V190c1,.07,2,.13,3,.18V179.77c-1-.05-2-.11-3-.18" transform="translate(-80.81 -102.88)"/><path id="_Контур_40" data-name="&lt;Контур&gt;" class="cls-8" d="M131.16,179.77v10.36c1,0,2-.11,3-.18V179.59c-1,.07-2,.13-3,.18" transform="translate(-80.81 -102.88)"/><path id="_Контур_41" data-name="&lt;Контур&gt;" class="cls-8" d="M123.75,180h-1.48V190.3h3V179.94h-1.48" transform="translate(-80.81 -102.88)"/><path id="_Контур_42" data-name="&lt;Контур&gt;" class="cls-2" d="M156.64,167.17c-4.2,3.7-19.32,6.85-37.33,6.85-14.08,0-26.39-1.93-33.1-4.53a2.44,2.44,0,0,0-1,1.76c0,4.5,17.24,8.7,38.5,8.7s38.5-4.2,38.5-8.7c0-1.55-2.05-2.93-5.61-4.08" transform="translate(-80.81 -102.88)"/><path id="_Контур_43" data-name="&lt;Контур&gt;" class="cls-6" d="M128.2,157.74c-19.57,0-35.71-3.73-38.17-7.83-5.74,1.3-9.22,3-9.22,5.06,0,4.49,17.24,8.69,38.5,8.69s38.5-4.2,38.5-8.69a1.71,1.71,0,0,0-.11-.59c-7.06,2-17.65,3.36-29.5,3.36" transform="translate(-80.81 -102.88)"/><path id="_Контур_44" data-name="&lt;Контур&gt;" class="cls-2" d="M156.32,133.38c-4.61,3.58-19.43,6.59-37,6.59-11.35,0-21.56-1.26-28.6-3.11a2.46,2.46,0,0,0-1,1.82c0,4.5,17.23,8.69,38.5,8.69s38.5-4.19,38.5-8.69c0-2.15-3.95-4-10.38-5.3" transform="translate(-80.81 -102.88)"/></g></g></svg>