<svg xmlns="http://www.w3.org/2000/svg" viewBox="0 0 345.38 90.18"><defs><style>.cls-1{fill:#fcc62d;}.cls-2{fill:#f44336;}.cls-3{fill:#fafafa;}.cls-4{fill:#455a64;}.cls-5{fill:#f05540;}.cls-6{fill:#f3705a;}.cls-7{fill:#f7b64c;}.cls-8{fill:#415a6b;}.cls-9{fill:#344a5e;}.cls-10{fill:#8ad7f8;}</style></defs><title>delivery</title><g id="Слой_1" data-name="Слой 1"><path class="cls-1" d="M52.49,129.53a3.64,3.64,0,0,0-3.64-3.64H27a3.64,3.64,0,0,0,0,7.28H48.85A3.64,3.64,0,0,0,52.49,129.53Z" transform="translate(-23.38 -99)"/><path class="cls-1" d="M48.85,140.45H34.29a3.64,3.64,0,0,0,0,7.27H48.85a3.64,3.64,0,1,0,0-7.27Z" transform="translate(-23.38 -99)"/><path class="cls-1" d="M48.85,155H41.57a3.64,3.64,0,1,0,0,7.28h7.28a3.64,3.64,0,1,0,0-7.28Z" transform="translate(-23.38 -99)"/><path class="cls-2" d="M139.3,153.13l-10.92-18.19a3.62,3.62,0,0,0-3.12-1.77H99.79a3.64,3.64,0,0,0-3.64,3.64V173.2a3.64,3.64,0,0,0,3.64,3.63h36.39a3.64,3.64,0,0,0,3.64-3.63V155A3.61,3.61,0,0,0,139.3,153.13Z" transform="translate(-23.38 -99)"/><polygon class="cls-3" points="87.33 41.45 99.82 41.45 108.56 56.01 87.33 56.01 87.33 41.45"/><path class="cls-1" d="M99.79,118.62H48.85a3.64,3.64,0,0,0-3.64,3.63V173.2a3.64,3.64,0,0,0,3.64,3.63h54.58V122.25A3.64,3.64,0,0,0,99.79,118.62Z" transform="translate(-23.38 -99)"/><circle class="cls-3" cx="98.24" cy="74.2" r="7.28"/><path class="cls-4" d="M121.62,184.11a10.92,10.92,0,1,1,10.92-10.91A10.92,10.92,0,0,1,121.62,184.11Zm0-14.55a3.64,3.64,0,1,0,3.64,3.64A3.65,3.65,0,0,0,121.62,169.56Z" transform="translate(-23.38 -99)"/><path class="cls-2" d="M103.43,176.83H48.85a3.64,3.64,0,0,1-3.64-3.63V162.28h58.22Z" transform="translate(-23.38 -99)"/><circle class="cls-3" cx="47.3" cy="74.2" r="7.28"/><path class="cls-4" d="M70.68,184.11A10.92,10.92,0,1,1,81.6,173.2,10.92,10.92,0,0,1,70.68,184.11Zm0-14.55a3.64,3.64,0,1,0,3.64,3.64A3.64,3.64,0,0,0,70.68,169.56Z" transform="translate(-23.38 -99)"/></g><g id="Слой_2" data-name="Слой 2"><path class="cls-1" d="M212.64,118.77a1.52,1.52,0,0,0-1.07,1.39v16.42H168.05a1.63,1.63,0,0,0-1.74,1.5v24a1.64,1.64,0,0,0,1.74,1.5h43.52V180a1.52,1.52,0,0,0,1.07,1.39,2,2,0,0,0,1.9-.33l34.84-29.9a1.38,1.38,0,0,0,.51-1.06,1.41,1.41,0,0,0-.5-1.06l-34.85-30A2,2,0,0,0,212.64,118.77Z" transform="translate(-23.38 -99)"/></g><g id="Слой_3" data-name="Слой 3"><rect class="cls-5" x="322.65" y="12.96" width="10.33" height="18.04"/><rect class="cls-6" x="318.7" y="3.76" width="18.22" height="9.77"/><path class="cls-1" d="M286.47,147.66v41.52h73.65V147.66L323.3,110.83h0C309,125.3,300.94,133.38,286.47,147.66Z" transform="translate(-23.38 -99)"/><path class="cls-7" d="M360.31,147.66l-36.83-36.83c-7.32,7.14-13,12.78-18.6,18.41l-18.41,18.42v8.45l36.83-36.82,36.82,36.82v1.13h0v-9.58Z" transform="translate(-23.38 -99)"/><path class="cls-8" d="M316.72,189.18H294.55v-21.8a11.1,11.1,0,0,1,11.08-11.08h0a11.11,11.11,0,0,1,11.09,11.08Z" transform="translate(-23.38 -99)"/><rect class="cls-9" x="299.92" y="57.3" width="28.93" height="25.36"/><rect class="cls-10" x="302.92" y="60.31" width="9.96" height="19.35"/><rect class="cls-10" x="315.89" y="60.31" width="9.96" height="19.35"/><path class="cls-6" d="M367.07,140,327.8,100.69a6.11,6.11,0,0,0-8.45,0L280.27,140a6,6,0,1,0,8.46,8.46l34.94-34.95,34.95,35a6,6,0,1,0,8.45-8.46Z" transform="translate(-23.38 -99)"/></g></svg>