<svg id="Слой_1" data-name="Слой 1" xmlns="http://www.w3.org/2000/svg" viewBox="0 0 799.62 351.63"><defs><style>.cls-1{fill:#8c6940;}.cls-2{font-size:120px;fill:#fff;font-family:Roboto-Bold, Roboto;font-weight:700;}</style></defs><title>Логотип5</title><path class="cls-1" d="M879.33,367.79v71.34A76.42,76.42,0,0,0,837,426.41H388.63v-9.57c0-37.84-31.57-68.62-70.38-68.62H229.86c-38.81,0-70.38,30.78-70.38,68.62V432A75.11,75.11,0,0,0,146,439.13V307.63H112.83V659.25H146V592.08H879.33v67.17h33.12V367.79Zm-691,90.9H837c23.36,0,42.37,18.53,42.37,41.3v9.11H146V500C146,477.22,165,458.69,188.32,458.69Z" transform="translate(-112.83 -307.63)"/><rect class="cls-1" x="33.12" y="284.45" width="733.38" height="46.19"/><text class="cls-2" transform="translate(153.73 301.8)">Spalni.kz</text></svg>