<svg xmlns="http://www.w3.org/2000/svg" viewBox="0 0 281.53 130.34"><defs><style>.cls-1{fill:#b2b1b3;}.cls-2{fill:#78b9eb;}.cls-3{fill:#3e3d42;}.cls-4{fill:#ebe5dd;}.cls-5{fill:#c49a6c;}.cls-6{fill:#8b5e3c;}.cls-7{fill:#57565c;}.cls-8{fill:#30424c;}.cls-9{fill:#a7a4ba;}.cls-10{fill:#e0e0e2;}.cls-11{fill:#231f20;}.cls-12{fill:#1b224a;}.cls-13{fill:#ffb69e;}.cls-14{fill:#fff;}.cls-15{fill:#5f6e9b;}.cls-16{fill:#414b82;}.cls-17{fill:#252d5c;}.cls-18{fill:#ba6746;}.cls-19{fill:#292d30;}.cls-20{fill:#80391b;}.cls-21{fill:#703014;}</style></defs><title>manufacturers</title><g id="Слой_1" data-name="Слой 1"><path class="cls-1" d="M107.51,210.68a12.47,12.47,0,0,1-2.1-.55l-.11,0a12.47,12.47,0,0,1-1.89-.87l-.11-.07a12.54,12.54,0,0,1-3.18-2.63l-.11-.12a12.31,12.31,0,0,1-1.13-1.58l-.16-.26a13.61,13.61,0,0,1-.83-1.72c0-.1-.07-.21-.11-.31a12,12,0,0,1-.52-1.89,1.87,1.87,0,0,1,0-.25,12,12,0,0,1,0-4.23,2.17,2.17,0,0,1,0-.25,12.61,12.61,0,0,1,.52-1.89l.11-.3a13,13,0,0,1,.83-1.72l.16-.26a11.06,11.06,0,0,1,1.13-1.58,1.5,1.5,0,0,1,.11-.13,12.75,12.75,0,0,1,3.18-2.63l.11-.06a11.57,11.57,0,0,1,1.89-.87l.11-.05a11.58,11.58,0,0,1,2.1-.55v-.19H61.33a12.6,12.6,0,1,1,0,25.19h46.18Z" transform="translate(-59.24 -84.83)"/><path class="cls-2" d="M107.51,210.68a13.33,13.33,0,0,0,2.1.19A12.24,12.24,0,0,1,107.51,210.68Z" transform="translate(-59.24 -84.83)"/><path class="cls-2" d="M109.61,210.87a12.6,12.6,0,0,0,12.59-12.6A12.6,12.6,0,0,1,109.61,210.87Z" transform="translate(-59.24 -84.83)"/><path class="cls-2" d="M105.41,210.13a12.47,12.47,0,0,0,2.1.55A12.47,12.47,0,0,1,105.41,210.13Z" transform="translate(-59.24 -84.83)"/><path class="cls-2" d="M122.2,198.27a12.59,12.59,0,0,0-12.59-12.59A12.59,12.59,0,0,1,122.2,198.27Z" transform="translate(-59.24 -84.83)"/><path class="cls-3" d="M105.41,186.42l-.11,0a11.57,11.57,0,0,0-1.89.87l-.11.06a13,13,0,0,0-3.18,2.63,1.5,1.5,0,0,0-.11.13,11.65,11.65,0,0,0-1.13,1.58l-.16.26a13.61,13.61,0,0,0-.83,1.72c0,.1-.07.21-.11.31a12.17,12.17,0,0,0-.52,1.88c0,.09,0,.17,0,.25a12,12,0,0,0,0,4.23,1.87,1.87,0,0,0,0,.25,12,12,0,0,0,.52,1.89c0,.11.08.21.11.31a13.61,13.61,0,0,0,.83,1.72l.16.26a11.65,11.65,0,0,0,1.13,1.58l.11.13a13,13,0,0,0,3.18,2.63l.11.06a12.47,12.47,0,0,0,1.89.87l.11,0a11.58,11.58,0,0,0,2.1.55,11.32,11.32,0,0,0,2.1.2,12.59,12.59,0,1,0-2.1-25A11.58,11.58,0,0,0,105.41,186.42Zm4.2,7.66a4.2,4.2,0,1,1-4.2,4.19A4.19,4.19,0,0,1,109.61,194.08Z" transform="translate(-59.24 -84.83)"/><path class="cls-2" d="M100.11,190a12.79,12.79,0,0,1,3.18-2.63A12.79,12.79,0,0,0,100.11,190Z" transform="translate(-59.24 -84.83)"/><path class="cls-2" d="M103.29,209.15a12.37,12.37,0,0,1-3.18-2.63A12.37,12.37,0,0,0,103.29,209.15Z" transform="translate(-59.24 -84.83)"/><path class="cls-4" d="M113.8,198.27a4.2,4.2,0,1,1-4.19-4.19A4.19,4.19,0,0,1,113.8,198.27Z" transform="translate(-59.24 -84.83)"/><path class="cls-5" d="M115.9,162.59V135.31H78.12v33.58H128.5V135.31H115.9Z" transform="translate(-59.24 -84.83)"/><path class="cls-6" d="M73.93,135.31h58.76v-8.4H73.93Z" transform="translate(-59.24 -84.83)"/><path class="cls-6" d="M78.12,168.89H73.93v8.39h58.76v-8.39Z" transform="translate(-59.24 -84.83)"/><path class="cls-7" d="M168.37,89.13H181v4.2h-12.6Z" transform="translate(-59.24 -84.83)"/><path class="cls-7" d="M168.37,110.12H181v77.66h-12.6Z" transform="translate(-59.24 -84.83)"/><path class="cls-7" d="M168.37,196.17H181v2.1h-12.6Z" transform="translate(-59.24 -84.83)"/><path class="cls-7" d="M149.49,198.27v12.6h37.77v-12.6Z" transform="translate(-59.24 -84.83)"/><path class="cls-8" d="M97,97.53v8.39h65.07V97.53Z" transform="translate(-59.24 -84.83)"/><path class="cls-9" d="M168.37,93.33h-6.29v16.79h25.18V93.33Z" transform="translate(-59.24 -84.83)"/><path class="cls-2" d="M101.21,124.81a2.1,2.1,0,1,0,2.1-2.09A2.1,2.1,0,0,0,101.21,124.81Z" transform="translate(-59.24 -84.83)"/><path class="cls-2" d="M101.21,108a2.1,2.1,0,1,0,2.1-2.1A2.1,2.1,0,0,0,101.21,108Z" transform="translate(-59.24 -84.83)"/><path class="cls-7" d="M164.18,187.78v8.39h21v-8.39Z" transform="translate(-59.24 -84.83)"/><path class="cls-10" d="M61.33,202.47a4.19,4.19,0,1,0-2.09-7.81v7.23A4.06,4.06,0,0,0,61.33,202.47Z" transform="translate(-59.24 -84.83)"/><path class="cls-3" d="M61.33,185.68a12.21,12.21,0,0,0-2.09.19v8.79a4.06,4.06,0,0,1,2.09-.58,4.2,4.2,0,1,1,0,8.39,4.06,4.06,0,0,1-2.09-.58v8.79a13.31,13.31,0,0,0,2.09.19,12.6,12.6,0,1,0,0-25.19Z" transform="translate(-59.24 -84.83)"/><path class="cls-11" d="M63.43,204.18a6.26,6.26,0,0,0,3.81-3.81h2.49v-4.2H67.24a6.3,6.3,0,0,0-3.81-3.81v-2.48H59.24v4.2h2.09v2.09a2.1,2.1,0,0,1,0,4.2v2.1H59.24v4.2h4.19Z" transform="translate(-59.24 -84.83)"/><path class="cls-11" d="M109.61,183.58H59.24v4.2h2.09a10.5,10.5,0,1,1,0,21H59.24V213h48.27l.75-.07c.45,0,.89.07,1.35.07a14.7,14.7,0,0,0,0-29.39Zm-38,25.19a14.65,14.65,0,0,0,0-21H99.3l0,0a12.51,12.51,0,0,0-.93,1c-.06.07-.11.15-.17.23a10.46,10.46,0,0,0-.65.84l-.26.4c-.16.25-.31.49-.46.75s-.16.31-.25.47-.25.5-.36.75a4.71,4.71,0,0,0-.21.52c-.1.25-.2.51-.28.77l-.18.54c-.08.27-.14.55-.21.82s-.08.36-.11.53-.11.63-.15.94l-.06.46c0,.47-.07.95-.07,1.44s0,1,.07,1.43l.06.46c0,.31.09.63.15.94s.07.35.11.52l.21.84c0,.17.11.35.17.52s.19.53.29.8l.21.48c.13.27.25.54.39.8l.22.42c.17.29.34.57.52.85.07.1.13.21.19.3a15.2,15.2,0,0,0,1.78,2.14Zm38,0a10.59,10.59,0,0,1-1.87-.19c-.33-.07-.66-.16-1-.26s-.66-.19-1-.3a7.08,7.08,0,0,1-.68-.32,9.1,9.1,0,0,1-1.14-.63c-.15-.09-.3-.21-.45-.31a10,10,0,0,1-1.13-.93l-.32-.32a12,12,0,0,1-1-1.17l-.26-.37a10.44,10.44,0,0,1-.71-1.32c-.07-.15-.15-.29-.21-.44a10.44,10.44,0,0,1-.45-1.44c0-.16-.1-.32-.13-.48a10.23,10.23,0,0,1,0-4c0-.17.09-.33.13-.5a10.62,10.62,0,0,1,.45-1.42,5,5,0,0,1,.22-.47,9.37,9.37,0,0,1,.7-1.28l.29-.42A10.74,10.74,0,0,1,102,191l.4-.39a12.09,12.09,0,0,1,1-.85l.57-.39a8.72,8.72,0,0,1,1-.54c.27-.13.53-.27.81-.38s.58-.18.87-.26a7.78,7.78,0,0,1,1.08-.28,10.48,10.48,0,1,1,1.84,20.82Z" transform="translate(-59.24 -84.83)"/><path class="cls-11" d="M111.71,192.36v-2.48h-4.2v2.48a6.3,6.3,0,0,0-3.81,3.81h-2.49v4.2h2.49a6.26,6.26,0,0,0,3.81,3.81v2.49h4.2v-2.49a6.3,6.3,0,0,0,3.81-3.81H118v-4.2h-2.48A6.36,6.36,0,0,0,111.71,192.36Zm-2.1,8a2.1,2.1,0,1,1,2.1-2.1A2.1,2.1,0,0,1,109.61,200.37Z" transform="translate(-59.24 -84.83)"/><path class="cls-11" d="M189.36,112.22v-21h-6.29V87H166.28v4.2H160v4.2H94.92V108h4.19a4.21,4.21,0,0,0,2.1,3.62v9.56a4.2,4.2,0,0,0-2.1,3.61H71.83v12.6H76v29.38h-4.2v12.59h63V166.79H130.6V137.41h4.19v-12.6H107.51a4.2,4.2,0,0,0-2.1-3.61v-9.56a4.21,4.21,0,0,0,2.1-3.62H160v4.2h6.3v73.46h-4.2v10.49H147.39V213h42v-16.8h-2.1V185.68h-4.19V112.22Zm-58.76,63H76V171H130.6Zm-37.78-12.6V137.41h21v25.18H118V137.41h8.4v29.38h-21V141.6h-4.2v25.19h-21V137.41h8.4v25.18ZM130.6,129v4.2H76V129ZM160,103.83H99.11v-4.2H160Zm4.2,4.19V95.43h21V108Zm21,100.75H181v-4.2h-2.1v4.2h-4.2v-4.2h-2.1v4.2h-21v-8.4h33.59Zm-2.1-14.69H166.28v-4.2h16.79Zm-12.6-8.4V112.22h8.4v73.46Z" transform="translate(-59.24 -84.83)"/><path class="cls-11" d="M168.37,97.53h2.1v4.2h-2.1Z" transform="translate(-59.24 -84.83)"/><path class="cls-11" d="M178.87,103.83h4.2v2.09h-4.2Z" transform="translate(-59.24 -84.83)"/><path class="cls-11" d="M153.68,202.47h4.2v2.1h-4.2Z" transform="translate(-59.24 -84.83)"/></g><g id="Слой_2" data-name="Слой 2"><path class="cls-12" d="M279.83,146.35A5.55,5.55,0,0,1,277.07,136l40.36-23.07a5.54,5.54,0,1,1,5.51,9.62l-40.37,23.08A5.57,5.57,0,0,1,279.83,146.35Z" transform="translate(-59.24 -84.83)"/><path class="cls-13" d="M277.07,136a5.55,5.55,0,0,0,2.76,10.36,5.47,5.47,0,0,0,2.74-.73Z" transform="translate(-59.24 -84.83)"/><polygon class="cls-14" points="220.15 49.82 217.81 51.16 223.34 60.79 225.81 59.37 220.15 49.82"/><path class="cls-15" d="M319.44,156.34v52.19a6.48,6.48,0,0,0,6.28,6.64h0A6.48,6.48,0,0,0,332,208.5V156.34Z" transform="translate(-59.24 -84.83)"/><path class="cls-16" d="M304.27,156.34v52.17a6.48,6.48,0,0,0,6.28,6.66h0a6.47,6.47,0,0,0,6.28-6.65V156.34Z" transform="translate(-59.24 -84.83)"/><path class="cls-17" d="M304.27,159.32H332V119.48a7.56,7.56,0,0,0-7.33-7.76H311.6a7.56,7.56,0,0,0-7.33,7.76Z" transform="translate(-59.24 -84.83)"/><path class="cls-16" d="M248.56,156.17v52.35a6.27,6.27,0,1,0,12.51,0V156.17Z" transform="translate(-59.24 -84.83)"/><path class="cls-15" d="M233.46,156.17V208.5a6.47,6.47,0,0,0,6.24,6.67h0a6.47,6.47,0,0,0,6.25-6.64V156.17Z" transform="translate(-59.24 -84.83)"/><path class="cls-17" d="M261.08,159.32H233.46V119.48a7.55,7.55,0,0,1,7.3-7.76h13a7.55,7.55,0,0,1,7.3,7.76v39.84Z" transform="translate(-59.24 -84.83)"/><circle class="cls-18" cx="187.87" cy="11.49" r="11.49"/><circle class="cls-13" cx="257.88" cy="11.49" r="11.49"/><path class="cls-19" d="M329.18,177.94H315.85a2.83,2.83,0,0,1-2.83-2.83V161.78a2.83,2.83,0,0,1,2.83-2.83h13.33a2.83,2.83,0,0,1,2.83,2.83v13.33A2.82,2.82,0,0,1,329.18,177.94Zm-10.5-5.66h7.67v-7.67h-7.67Z" transform="translate(-59.24 -84.83)"/><path class="cls-20" d="M340.76,192.24a2.94,2.94,0,0,1-2.94,2.94H307.21a2.94,2.94,0,0,1-2.94-2.94v-19.3a2.94,2.94,0,0,1,2.94-2.94h30.61a2.93,2.93,0,0,1,2.94,2.94v19.3Z" transform="translate(-59.24 -84.83)"/><path class="cls-12" d="M322.4,166.34a5.34,5.34,0,0,1-.89-.07,5.55,5.55,0,0,1-4.59-6.36l3-18.58-7.67-21.64A5.55,5.55,0,0,1,322.69,116l8.14,23a5.55,5.55,0,0,1,.24,2.74l-3.2,20A5.55,5.55,0,0,1,322.4,166.34Z" transform="translate(-59.24 -84.83)"/><path class="cls-13" d="M316.92,159.91a5.55,5.55,0,1,0,10.95,1.76Z" transform="translate(-59.24 -84.83)"/><path class="cls-12" d="M276.26,142.69c-.21,0-.43,0-.65,0l-19.32-2.27a5.54,5.54,0,0,1-3.26-1.57L237,122.9a5.55,5.55,0,0,1,7.82-7.87l14.65,14.56,17.41,2a5.55,5.55,0,0,1-.64,11.06Z" transform="translate(-59.24 -84.83)"/><path class="cls-18" d="M276.9,131.63l-1.29,11a5.55,5.55,0,0,0,1.29-11Z" transform="translate(-59.24 -84.83)"/><polygon class="cls-14" points="217.67 46.8 214.99 46.49 213.65 57.5 216.38 57.82 217.67 46.8"/><polygon class="cls-14" points="258.11 72.44 257.68 75.08 268.63 76.84 269.07 74.07 258.11 72.44"/><path class="cls-21" d="M337.82,170h-15.3v25.18h15.3a2.94,2.94,0,0,0,2.94-2.94v-19.3A2.93,2.93,0,0,0,337.82,170Z" transform="translate(-59.24 -84.83)"/></g></svg>